# xmcd
# 
# Track frame offsets:
#     150
#     13065
#     25747
#     48850
#     71712
#     84887
#     105497
#     127575
#     144452
#     160120
#     167675
#     185302
# 
# Disc length: 2772
# 
# Revision: 1
# Processed by: cddbd v1.5.2PL0 Copyright (c) Steve Scherf et al.
# Submitted via: fre:ac v1.0.27
# 
DISCID=870ad20c
DTITLE=Various Artist - Cafe relaxation Urban Voices
DYEAR=2002
DGENRE=Jazz
TTITLE0=Wave - Helen Merrill
TTITLE1=Too Marvelous For Words - Helen Merrill
TTITLE2=New York State of Mind - Ann Burton
TTITLE3=Vera Cruz - Helen Merrill
TTITLE4=Alone Together - Helen Merrill John Lewis
TTITLE5=Something So Right - Ann Burton
TTITLE6=Antonio's Song - Helen Merrill
TTITLE7=Come in from the Rain - Ann Burton
TTITLE8=So Many Star - Helen Merrill
TTITLE9=Soon - Ann Burton
TTITLE10=How Long Has This Been Going On - Helen Merrill John Lewis
TTITLE11=Never Never Land - Anna Burton
EXTD=YEAR: 2002
EXTT0=
EXTT1=
EXTT2=
EXTT3=
EXTT4=
EXTT5=
EXTT6=
EXTT7=
EXTT8=
EXTT9=
EXTT10=
EXTT11=
PLAYORDER=
